Patient4_TMGait_0pt4_03_right_10_EMG.mot
version=1
nRows=33
nColumns=33
inDegrees=no
endheader
time	1LAddLong	2LGlutMax	3LGlutMed	4LIliopsoas	5LSemiMemb	6LBicFemLong	7LRecFem	8LVastMed	9LVastLat	10LGasMed	11LTibAnt	12lTibPost	13LPeroneusLong	14LSol	15LExtDigLong	16LFlexDigLong	17RAddLong	18RGlutMax	19RGlutMed	20RIliopsoas	21RSemiMemb	22RBicFemLong	23RRecFem	24RVastMed	25RVastLat	26RGasMed	27RTibAnt	28RTibPost	29RPeroneusLong	30RSol	31RExtDigLong	32RFlexDigLong
13.475	0.005341	-0.03891	0.12146	-0.010986	0.012665	-0.003815	0.023193	-0.001984	0.011292	-0.030518	-0.000153	0.007629	-0.022736	0.011292	-0.00061	-0.001526	0.010223	0.038147	-0.17349	0.002899	-0.009918	0.24811	-0.020142	-0.053253	0.006409	0	0.016937	0	0.032959	-0.023651	-0.00061	0.002441
13.476	0.007019	-0.052032	0.080414	0.002594	0.009155	0.014954	0.066376	-0.006256	-0.12543	-0.070496	0.016937	0.013885	-0.10407	-0.023499	-0.010071	-0.002594	0.021362	0.021973	0.4628	-0.018311	-0.013733	0.25696	0.009003	-0.059662	0.000153	0.001678	0.04837	-0.001068	0.009155	-0.004425	-0.000305	0.012817
13.477	0.005341	-0.038757	0.06897	0.020142	0.005341	0.00061	0.052795	0.003815	-0.07843	-0.078735	0.011902	-0.044556	-0.08606	0.065002	-0.005493	0.00061	0.023804	-0.018768	0.22049	-0.013123	-0.003052	0.29098	0.009613	-0.11292	0.015259	-0.000153	0.1059	-0.005188	0.010071	-0.008545	0.000763	0.016785
13.478	0.007782	-0.042267	0.002594	0.025024	0.01358	-0.010376	0.03952	0.000305	-0.06073	-0.082855	-0.006866	0.091553	0.039673	0.20218	-0.005188	-0.002747	0.001984	-0.059662	0.34134	0.020142	-0.032959	0.35187	-0.003662	-0.054016	0.02594	-0.001221	0.15823	0.001678	0.0354	-0.028687	-0.004272	0.015869
13.479	-0.003204	-0.068665	-0.056458	0.021362	0.008087	-0.011597	0.058289	-0.001678	-0.0383	-0.009308	-0.006561	0.080872	0.00824	0.23834	-0.015564	-0.006714	-0.030365	-0.10223	0.084534	-0.000153	-0.05249	0.35202	-0.050049	-0.024567	0.03006	-0.000763	0.28168	0.001068	0.067444	-0.010223	0.00061	0.015106
13.48	0.004425	-0.045776	-0.061188	0.023193	0.009918	-0.02182	0.052948	0.00412	-0.035248	-0.052643	0.001526	-0.019226	-0.015564	0.1004	-0.010986	0.006104	-0.015259	-0.09079	0.39932	-0.021973	-0.02243	0.30655	-0.009918	-0.034485	0.033417	-0.00061	0.19104	-0.005493	0.18341	0.036774	-0.000916	0.015869
13.481	0.004883	-0.045929	-0.023193	0.013885	0.009766	0.001831	-0.007172	0.009308	-0.053253	-0.024872	0.004272	-0.031281	-0.063782	-0.21622	0.006561	0.024567	0.003052	-0.052032	-0.045624	-0.026245	-0.044861	0.30746	-0.013428	-0.077972	0.019226	-0.010529	0.025024	-0.001373	0.39398	0.000153	0.001068	0.0177
13.482	0.010223	-0.017395	0.028534	0.001678	0.015411	0.021973	-0.018463	0.000916	-0.034027	-0.040588	0.004578	0.063171	-0.056152	-0.19714	0.013275	-0.025787	0.001678	-0.059204	-0.17227	0.019073	-0.054169	0.37231	-0.02594	-0.053864	0.018768	-0.003052	-0.035248	-0.001526	0.45029	-0.048523	0.000916	0.012054
13.483	0.006561	-0.009155	0.089417	0.00351	0.007782	0.014496	-0.011902	0.005188	0.018921	0.004272	-0.000153	-0.042267	-0.075836	-0.00824	0.016327	-0.010071	-0.009766	-0.02243	0.13519	-0.015869	0.046387	0.3714	-0.00946	-0.058594	0.003815	-0.003967	0.001831	-0.006256	0.13168	-0.02182	0.00351	0.010834
13.484	0.005493	0.002747	0.050507	0.062866	-0.010223	0.022278	0.014496	-0.00351	0.028992	0.017853	0.009613	-0.045013	-0.087128	-0.13641	0.009003	-0.000916	-0.00473	-0.045624	0.22964	-0.009766	0.060577	0.4129	-0.022278	-0.055237	0.009308	-0.012817	0.009613	-0.002136	-0.14221	-0.01709	0.001678	0.00412
13.485	0.007477	-0.021973	0.069733	0.038605	-0.00061	-0.015717	0.059967	-0.002899	0.03006	0.029449	0.001984	-0.007629	-0.024109	-0.13519	0.007782	0.014648	0.004272	-0.082855	-0.032349	-0.031891	0.016632	0.43549	-0.022888	-0.070953	0.006409	-0.004578	0.007629	-0.00351	-0.083008	0.037689	-0.000916	-0.009766
13.486	0.004883	-0.007477	0.074005	0.017548	0.0177	-0.06897	0.013733	-0.002747	0.050201	0.029144	0.002594	-0.013275	0.03952	-0.077972	-0.00473	0.002899	0.001373	-0.074921	-0.041046	-0.010376	0.010071	0.45059	-0.010071	-0.054169	0.007019	-0.003052	0.052185	-0.001678	-0.34958	0.061798	0.001068	-0.012665
13.487	-0.010376	-0.015259	0.022278	0.00061	0.017395	-0.015564	-0.049438	0.00412	0.044098	0.06073	0.005493	-0.00412	0.003967	0.00351	-0.018005	-0.01358	0.003967	-0.069427	-0.13275	-0.019531	-0.011444	0.4953	-0.033264	-0.015106	0.001526	0.005493	0.07782	-0.001068	-0.32867	0.059967	-0.001526	-0.016022
13.488	0.029755	-0.00412	0.015411	-0.019836	0.019684	-0.006714	-0.003967	-0.002289	0.054474	0.077667	-0.001221	-0.002136	0.028534	0.073547	-0.003815	-0.015259	0.016174	-0.03067	-0.005798	0.023499	-0.009003	0.49698	0.011292	-0.059967	0.00824	-0.005798	0.03479	-0.004272	-0.087128	-0.087585	0.001068	-0.018005
13.489	-0.02533	-0.031281	0.025635	-0.010376	0.015564	-0.010986	-0.003204	0.003052	0.04837	0.079956	-0.007477	-0.003357	0.049591	0.112	-0.003357	-0.011749	0.019989	-0.011749	-0.079346	0.005493	-0.018311	0.48355	0.004883	-0.040588	0.002441	-0.009308	0.011292	-0.003052	-0.085907	-0.11902	0.001221	-0.013275
13.49	-0.012512	-0.031281	0.051575	-0.016632	0.012817	-0.02655	0.020905	0.000763	0.045319	0.073853	0.012054	0.006866	-0.005646	0.11002	-0.009766	-0.010681	0.011749	-0.026093	-0.099945	-0.098419	-0.014038	0.49469	-0.005341	-0.031586	0.013275	-0.018768	-0.007629	-0.004425	-0.23926	-0.06546	-0.002899	-0.017548
13.491	0.003662	-0.058441	-0.004272	0.013885	0.010223	-0.023651	0.029907	-0.001068	0.049744	0.049591	0.023499	0.007935	-0.031433	0.031433	0.011749	-0.000458	-0.017242	-0.044861	0.072479	-0.088348	-0.033112	0.49683	-0.001373	-0.004578	0.029602	-0.021362	0.037689	-0.007477	-0.13504	-0.052185	0.000763	-0.008698
13.492	0.005493	-0.055389	-0.002747	0.016937	0.012512	-0.03006	0.035858	0.000763	0.036469	0.020447	0.011902	-0.000305	-0.060883	0.06073	0.026245	0.00351	-0.011139	-0.079956	0.077057	0.010223	-0.042267	0.4837	-0.014954	-0.012665	0.016632	-0.01709	0.13138	-0.007935	-0.000916	-0.033112	0.000153	-0.010834
13.493	-0.005341	-0.055847	-0.027771	0.009613	0.020142	-0.027771	0.055237	0.00412	-0.006561	0.019989	0.032349	0.005951	-0.12192	0.015564	0.028229	0.009918	0.008545	-0.03891	-0.016022	0.03952	-0.037079	0.47745	-0.046997	-0.053406	0.002899	-0.020294	0.092468	-0.001221	0.066071	-0.021515	0.001068	-0.011292
13.494	-0.000916	-0.037689	0.004578	0.003357	0.00946	-0.019531	0.054321	0.005951	0.001068	-0.007935	0.012054	-0.002441	0.20569	-0.011902	0.014801	-0.004578	0.008087	-0.021362	-0.38544	0.056763	0.07019	0.42175	-0.027161	-0.01709	0.014954	-0.029144	0.042572	-0.006104	0.11948	-0.022278	0.002747	-0.004883
13.495	-0.007172	-0.028381	-0.033112	0.024414	0.023499	-0.035095	0.028076	0.005188	-0.005493	-0.034485	-0.018463	-0.004883	0.3479	0.000153	0.007019	0.005341	0.021667	0.001068	-0.40878	0.067291	0.010376	0.35889	-0.032043	-0.019073	0.001526	-0.019226	-0.044556	-0.004425	0.27695	-0.018921	0.007477	0.001678
13.496	-0.003815	-0.04837	-0.014343	0.014191	-0.01358	-0.014038	0.031891	0.010223	-0.054626	-0.044098	-0.024567	0.000153	0.36179	-0.0177	0.01358	-0.003967	0.00885	-0.031433	-0.27268	0.053711	0.049133	0.33264	-0.039215	-0.014038	0.013733	-0.023499	-0.23712	0	0.50766	-0.037689	0.004425	0.003967
13.497	-0.00946	-0.007019	-0.086975	0.019226	-0.038757	-0.006866	0.0737	0.000153	-0.090027	-0.040283	-0.025787	0.001678	0.023956	-0.040588	0.025635	0.003204	0.028687	-0.038757	-0.25757	0.016174	0.023956	0.37537	-0.015106	-0.011749	0.011444	-0.019531	-0.19928	0	0.011292	-0.087891	-0.000305	0.016174
13.498	-0.001373	-0.012665	-0.14877	0.009613	-0.055389	-0.004578	0.059967	0.011902	-0.092163	-0.00946	-0.048218	0.005188	-0.44846	0.093994	0.020752	0.008087	0.019073	-0.013275	-0.094757	-0.001221	-0.033722	0.34897	-0.014343	-0.037537	-0.02121	-0.024414	-0.058746	-0.001831	-0.50644	-0.072327	-0.000458	0.019073
13.499	0.003662	-0.051575	-0.023346	0.017395	-0.05722	-0.001984	0.060272	0.010376	-0.065918	0.011139	-0.039978	0.00061	-0.24674	0.1683	-0.024719	0.006104	0.018158	-0.046844	-0.10895	0.03006	0.021515	0.33661	0.006866	-0.049591	-0.006409	-0.025024	0.33249	-0.003357	-0.25925	-0.028687	-0.001068	0.0177
13.5	0.000153	-0.041046	-0.043793	0.016327	-0.053406	0.000305	0.084839	0.007019	-0.019531	-0.024719	-0.069122	0.007477	0.1178	0.079651	-0.002441	-0.001526	-0.015106	-0.014343	-0.16144	0.005951	0.005493	0.34241	-0.008087	-0.01709	-0.001221	-0.025482	0.76569	-0.004272	-0.040283	-0.024261	0.003204	0.016785
13.501	0.006104	-0.07019	-0.077515	0.014648	-0.010376	-0.020599	0.085449	0.023193	0.036163	-0.036163	-0.077667	0.001373	-0.016327	-0.003357	0.001526	-0.007172	-0.012817	-0.084686	-0.23086	0.016785	-0.013885	0.27451	0.039825	-0.006561	0.001984	-0.031128	0.42664	-0.003662	-0.035095	-0.025787	0.001221	0.018921
13.502	0.001221	-0.050659	-0.17914	0.005493	0.00885	-0.025482	-0.001068	0.007477	0.17532	-0.013123	-0.013885	-0.001068	-0.10315	-0.028534	-0.032959	0.017395	-0.007019	-0.053406	-0.13596	0.020447	-0.018768	0.2272	0.003357	0.040131	0.02121	-0.025787	-0.067139	-0.002899	0.026245	-0.00885	0.00061	0.017548
13.503	0.016937	-0.026855	0.056305	-0.001678	0.10346	-0.006866	-0.11597	-0.009003	0.11948	0.000458	0.11078	0.002594	-0.09903	-0.013275	0.001373	-0.004578	0.010223	0.011902	-0.027924	-0.001068	-0.075989	0.20111	0.033722	0.019836	0.005188	-0.016785	-0.31387	-0.002441	0.042267	-0.04364	0.00412	0.00946
13.504	0.019226	-0.047913	0.16663	0.027466	0.13046	-0.014038	-0.04776	-0.001831	0.049896	0.014038	0.095978	0.000153	-0.11704	-0.051727	-0.004578	0.00824	-0.002441	-0.015717	-0.013885	-0.007477	-0.05249	0.15274	-0.019226	0.023956	0.013123	-0.011444	-0.43961	-0.000153	0.084839	-0.027466	0	0.027618
13.505	0.028687	-0.041962	0.30502	0.036621	0.08606	-0.000763	0.056152	0.000305	0.085297	0.009918	0.041504	0.007629	-0.011444	-0.016327	-0.010223	0.005341	-0.016479	0.035095	-0.081787	-0.008698	-0.001373	0.14847	-0.066071	0.007019	0.018768	-0.014496	-0.31647	-0.007019	0.027618	-0.007172	0.000458	0.020142
13.506	0.01297	-0.0737	0.29175	0.015869	0.065002	0.011749	0.031891	0.004425	0.070038	0.011292	-0.004578	0.004425	0.052643	0.024109	0.042114	0.014954	-0.016785	-0.054474	-0.21362	0.015564	0.001526	0.12024	-0.068054	0.032959	0.009766	-0.023499	-0.17227	0.000763	-0.052185	0.008698	0	0.029755
13.507	0.023346	-0.051575	0.17288	0.01297	0.041199	-0.003204	0.005798	0.005798	0.010681	0.0177	-0.13306	-0.00412	0.072174	0.062561	0.007629	-0.001221	-0.013733	-0.014801	0.045929	0.001373	-0.010376	0.10071	-0.066528	0.046539	0.036316	-0.018311	-0.072632	-0.006409	0.001831	-0.003357	0.000916	0.043488
